# xmcd
#
# Track frame offsets:
#	150
#	17584
#	25567
#	37870
#	49999
#	57938
#	71537
#	80137
#
# Disc length: 1317 seconds
#
# Revision: 1
# Processed by: cddbd v1.5.2PL0 Copyright (c) Steve Scherf et al.
# Submitted via: audiograbber 1.83.01
#
DISCID=5d052308
DTITLE=Hansi Rösch - Die Glocke vom Allgäu
DYEAR=2002
DGENRE=Country
TTITLE0=Hansi Jodler
TTITLE1=Biff-Baff
TTITLE2=Hirtebue
TTITLE3=Viel zu Wenig
TTITLE4=Anhalterliesel
TTITLE5=Allgäu-Jodler
TTITLE6=Ab und zu
TTITLE7=Seealpsee Jodler
EXTD=
EXTT0=
EXTT1=
EXTT2=
EXTT3=
EXTT4=
EXTT5=
EXTT6=
EXTT7=
PLAYORDER=
